HIERARCHY
ROOT hip
{
	OFFSET 0.000000 0.000000 0.000000 
	CHANNELS 6 Xposition Yposition Zposition Xrotation Zrotation Yrotation
	JOINT abdomen
	{
		OFFSET 0.000000 3.402643 0.000000 
		CHANNELS 3 Xrotation Zrotation Yrotation
		JOINT chest
		{
			OFFSET 0.000000 8.438565 -0.680529 
			CHANNELS 3 Xrotation Zrotation Yrotation
			JOINT neck
			{
				OFFSET 0.000000 10.207942 -0.272212 
				CHANNELS 3 Xrotation Zrotation Yrotation
				JOINT head
				{
					OFFSET 0.000000 3.130431 0.000000 
					CHANNELS 3 Xrotation Zrotation Yrotation
					End Site
					{
						OFFSET 0.000000 3.130435 0.000000 
					}
				}
			}
			JOINT lCollar
			{
				OFFSET 3.470700 6.669187 -0.816635 
				CHANNELS 3 Yrotation Zrotation Xrotation
				JOINT lShldr
				{
					OFFSET 3.198488 0.000000 0.000000 
					CHANNELS 3 Zrotation Yrotation Xrotation
					JOINT lForeArm
					{
						OFFSET 10.139888 0.000000 0.000000 
						CHANNELS 3 Yrotation Zrotation Xrotation
						JOINT lHand
						{
							OFFSET 8.370511 0.000000 0.000000 
							CHANNELS 3 Zrotation Yrotation Xrotation
							End Site
							{
								OFFSET 4.083176 0.000000 0.000000 
							}
						}
					}
				}
			}
			JOINT rCollar
			{
				OFFSET -3.470700 6.669187 -0.816635 
				CHANNELS 3 Yrotation Zrotation Xrotation
				JOINT rShldr
				{
					OFFSET -3.198488 0.000000 0.000000 
					CHANNELS 3 Zrotation Yrotation Xrotation
					JOINT rForeArm
					{
						OFFSET -10.139888 0.000000 0.000000 
						CHANNELS 3 Yrotation Zrotation Xrotation
						JOINT rHand
						{
							OFFSET -8.370511 0.000000 0.000000 
							CHANNELS 3 Zrotation Yrotation Xrotation
							End Site
							{
								OFFSET -4.083176 0.000000 0.000000 
							}
						}
					}
				}
			}
		}
	}
	JOINT lThigh
	{
		OFFSET 5.308129 -1.633274 1.361059 
		CHANNELS 3 Xrotation Zrotation Yrotation
		JOINT lShin
		{
			OFFSET -2.041588 -20.007561 0.000000 
			CHANNELS 3 Xrotation Zrotation Yrotation
			JOINT lFoot
			{
				OFFSET 0.000000 -19.190928 -1.224953 
				CHANNELS 3 Xrotation Yrotation Zrotation
				End Site
				{
					OFFSET 0.000000 -2.449906 4.627600 
				}
			}
		}
	}
	JOINT rThigh
	{
		OFFSET -5.308129 -1.633274 1.361059 
		CHANNELS 3 Xrotation Zrotation Yrotation
		JOINT rShin
		{
			OFFSET 2.041588 -20.007561 0.000000 
			CHANNELS 3 Xrotation Zrotation Yrotation
			JOINT rFoot
			{
				OFFSET 0.000000 -19.190928 -1.224953 
				CHANNELS 3 Xrotation Yrotation Zrotation
				End Site
				{
					OFFSET 0.000000 -2.449906 4.627600 
				}
			}
		}
	}
}
MOTION
Frames: 11
Frame Time: 0.033333
-11.083823 49.127907 67.871315 114.688942 -3.035885 -33.663033 0.000000 0.000000 0.000000 17.246597 -10.250995 -2.079849 -16.656492 -19.259399 17.001305 2.015374 17.294304 -14.093520 -7.721909 -12.003166 25.000000 61.472187 -11.568736 -69.475166 -17.998970 -3.990818 2.730649 90.560745 16.274397 -2.411638 11.954805 -13.785347 25.000000 -83.496147 -4.104267 -60.773590 1.657670 9.387408 2.940524 -36.197155 7.820146 7.677828 -70.037453 36.317757 -8.482550 21.772270 -4.303375 21.753630 -27.431099 -0.076945 0.384523 -16.337757 -31.842144 -23.185623 32.343075 -1.831542 -27.246164 -1.446975 0.059227 -4.037966 
-8.921679 48.347050 65.202690 110.190895 0.431497 -36.593063 0.000000 0.000000 0.000000 17.080963 -9.380068 -1.286437 -16.300819 -17.735859 15.248647 6.958079 20.324333 -13.040688 -4.522209 -17.228954 25.000000 65.290474 -11.242675 -65.281006 -17.703434 -5.339341 2.805970 90.463387 22.658201 -1.097079 9.803609 -12.505388 25.000000 -84.748611 -6.267658 -51.481125 2.965781 8.756482 2.914168 -23.948505 13.572021 0.907170 -82.538170 34.228336 -12.018902 23.981583 -3.298805 24.999380 -27.771305 0.201599 -0.782647 -15.312041 -27.696886 -23.087307 33.595646 0.512681 -30.134350 -0.580277 0.024946 -3.569155 
-6.703191 46.897587 62.628315 104.244247 4.425684 -40.227699 0.000000 0.000000 0.000000 16.642189 -8.698182 -0.880534 -15.955537 -15.011062 14.315252 12.578064 16.602808 -8.315763 -0.788179 -22.210390 25.000000 66.598335 -12.660639 -61.125206 -18.056786 -6.522107 2.877136 89.827271 28.747017 -0.530362 9.779811 -6.847926 25.000000 -86.083054 -7.548805 -41.819023 5.114636 8.822806 2.923162 -22.128130 10.971086 -0.309311 -78.436020 34.306053 -1.455182 13.529479 -3.101855 36.453285 -35.712597 3.242556 -10.007513 -14.452554 -24.750755 -23.477491 36.098423 2.958588 -32.501827 -0.606457 0.036395 -3.470874 
-4.664158 45.667217 60.587898 98.599823 7.831203 -44.448826 0.000000 0.000000 0.000000 15.965551 -8.370392 -0.949473 -10.282723 -14.118155 6.780139 6.507884 13.106763 -6.675280 0.196365 -25.000000 25.000000 65.435600 -13.428041 -58.346302 -16.539446 -7.689456 2.936348 88.945282 32.169479 0.623483 9.977905 -2.699177 25.000000 -82.989670 -8.059578 -30.733591 5.776416 7.399083 2.843411 -21.669500 6.686766 -13.105001 -88.922234 33.680523 -7.282090 42.111679 -2.478418 25.269197 -41.601227 1.610313 -4.221455 -15.222948 -20.207836 -23.307871 40.207657 5.208200 -33.486332 -0.147997 0.012489 -3.161390 
-2.950931 45.545147 59.073380 95.501099 11.350596 -47.557045 0.000000 0.000000 0.000000 14.919819 -8.894129 -2.183536 -14.046989 -12.910902 9.040148 10.245645 16.770840 0.710705 -1.154664 -25.000000 25.000000 63.730221 -12.175834 -57.308033 -11.835064 -9.058621 2.982483 89.286957 35.616665 2.757838 6.974329 -8.588112 25.000000 -69.960526 -8.009551 -16.117300 4.193303 5.473202 2.716314 -15.139157 1.186108 -28.207603 -84.294182 35.135548 -3.089525 34.329597 -5.190422 36.804501 -45.758339 3.587378 -8.475903 -18.778114 -12.918158 -22.281389 44.752243 6.696257 -28.662018 1.487297 -0.040103 -2.623289 
-1.407587 45.333359 57.492538 92.045097 13.985069 -50.460655 0.000000 0.000000 0.000000 14.557027 -8.728844 -2.257312 -13.006422 -10.863723 4.514269 9.675035 16.872215 4.628219 -1.972870 -14.466692 25.000000 53.688053 -20.327379 -65.579170 -1.310562 -9.863309 2.978678 84.682205 34.695972 2.300647 6.065726 -15.076514 25.000000 -50.306953 -10.898958 -0.631201 2.996290 2.057860 2.508458 -11.275230 2.344543 -42.003891 -86.205940 35.173813 -4.256677 39.437145 -6.069787 37.991692 -47.052864 2.777941 -6.370482 -20.503815 -4.431098 -22.158396 48.287617 10.163653 -20.662788 5.895056 -0.021793 -0.580690 
0.373594 45.984093 56.045719 87.972778 16.598875 -53.458172 0.000000 0.000000 0.000000 15.419371 -9.448833 -2.475415 -11.819832 -8.340640 1.001565 11.133962 15.239725 6.517426 -3.807717 -4.475446 25.000000 46.177406 -25.913675 -103.841965 -0.648352 -7.310164 2.829075 77.762604 19.458109 7.371567 4.197670 -21.553307 25.000000 -30.699427 -13.592799 3.680189 3.964989 -1.642253 2.289969 -8.660976 4.815381 -49.189552 -81.981049 36.747486 -1.251268 36.497147 -9.377184 35.674599 -44.686352 0.758482 -1.814076 -21.318054 4.149953 -21.964949 49.057487 13.941440 -8.001637 10.616574 0.224599 2.432939 
2.332966 46.097225 54.764011 81.187904 19.855093 -59.249165 0.000000 0.000000 0.000000 16.139635 -10.177608 -2.410172 -8.280674 -9.143576 2.460715 10.022137 15.473998 5.575785 -2.789035 -3.770411 25.000000 38.295452 -24.839361 -77.387039 -2.658165 -3.986542 2.633959 56.165764 35.050446 -5.072119 2.111344 -17.439938 25.000000 -29.012720 -15.485801 6.795477 3.130891 -2.533966 2.230206 -5.483565 4.565910 -55.582256 -79.804756 37.910301 0.929274 38.743313 -9.977344 38.643246 -43.736736 0.409343 -1.027543 -19.311790 9.902002 -22.406898 48.794075 17.994080 3.197400 13.864571 0.588525 4.816958 
4.480854 45.873856 54.065708 71.096466 24.273958 -67.730782 0.000000 0.000000 0.000000 16.385658 -11.875690 -2.476693 -2.423909 -12.557318 5.171453 4.731121 16.078396 2.941136 -2.642832 -11.441483 25.000000 33.800476 -16.975317 -58.029507 -2.533289 -4.106105 2.636719 26.688908 34.592590 -25.778410 4.242408 -17.399809 25.000000 -23.700735 -18.478298 9.588912 4.078616 -2.679782 2.225865 -5.514004 4.280137 -56.774868 -72.924088 38.013855 4.294790 39.466431 -11.440688 41.403252 -43.276546 -0.457992 1.192215 -16.454241 11.337564 -23.423166 48.986698 19.760729 8.928831 14.825061 0.704120 5.491328 
6.648373 45.586433 53.902996 58.657684 27.858744 -77.567787 0.000000 0.000000 0.000000 17.256887 -13.874918 -2.318970 -0.426072 -13.657097 7.665270 3.067328 14.816451 2.430054 -2.017478 -22.534145 25.000000 33.746693 -7.415852 -41.660858 -3.727606 -4.194983 2.653969 7.570730 16.097324 -38.238888 4.443074 -16.933424 25.000000 -20.156797 -22.022079 10.655115 4.599467 -4.299868 2.123328 -4.776254 8.046306 -59.832668 -65.618660 35.844814 7.795420 39.321709 -13.426580 44.093746 -41.761681 -1.549844 4.067686 -13.820992 9.744481 -24.185375 48.754734 19.405046 10.438081 14.632903 0.727618 5.471692 
8.762911 45.262253 54.091507 45.667080 30.075788 -87.831184 0.000000 0.000000 0.000000 18.234224 -14.819985 -1.879319 -0.479956 -13.329666 9.293331 6.034254 11.287762 2.114141 -0.735104 -25.000000 25.000000 37.098251 0.795052 -30.464581 -8.542155 -4.753158 2.706228 4.362434 10.089792 -39.916183 3.367719 -14.712952 25.000000 -19.932997 -25.706478 12.571521 4.870469 -5.858026 2.034444 -7.068562 9.326329 -63.091270 -60.174545 32.040203 9.196046 41.458973 -14.236349 35.694157 -37.766499 -3.900416 11.369969 -12.240192 7.762764 -22.695837 46.493008 18.100271 14.377021 15.914242 0.993556 6.939344 
